<?xml version="1.0" encoding="UTF-8" standalone="no"?>
<!-- Created with Inkscape (http://www.inkscape.org/) -->

<svg
   xmlns:svg="http://www.w3.org/2000/svg"
   xmlns="http://www.w3.org/2000/svg"
   version="1.1"
   width="200"
   height="246"
   id="svg10928">
  <defs
     id="defs10930" />
  <g
     transform="translate(0,-806.36218)"
     id="layer1">
    <g
       transform="matrix(7.2366755,0,0,-7.2321035,-1780.584,3680.0168)"
       id="g6843">
      <g
         transform="scale(1,-1)"
         id="g3355">
        <path
           d="m 273.687,-365.245 c 0,1.057 -0.856,1.913 -1.914,1.913 0,0 -23.81,0 -23.81,0 -1.058,0 -1.913,-0.856 -1.913,-1.913 0,0 0,-30.189 0,-30.189 0,-1.057 0.855,-1.913 1.913,-1.913 0,0 23.81,0 23.81,0 1.058,0 1.914,0.856 1.914,1.913 0,0 0,30.189 0,30.189 z"
           id="path3357"
           style="fill:#ffffff;fill-opacity:1;fill-rule:nonzero;stroke:none" />
      </g>
      <g
         transform="scale(1,-1)"
         id="g3359">
        <path
           d="m 271.755,-393.459 c 0,-1.174 -0.951,-2.127 -2.125,-2.127 0,0 -19.134,0 -19.134,0 -1.175,0 -2.126,0.953 -2.126,2.127 0,0 0,21.292 0,21.292 0,0 23.385,0 23.385,0 0,0 0,-21.292 0,-21.292 z"
           id="path3361"
           style="fill:#000000;fill-opacity:1;fill-rule:nonzero;stroke:none" />
      </g>
      <g
         transform="scale(1,-1)"
         id="g3363">
        <path
           d="m 248.37,-372.167 c 0,0 0,4.218 0,4.218 0,1.175 0.951,2.127 2.126,2.127 0,0 19.134,0 19.134,0 1.174,0 2.125,-0.952 2.125,-2.127 0,0 0,-4.218 0,-4.218 0,0 -23.385,0 -23.385,0 z"
           id="path3365"
           style="fill:#ffffff;fill-opacity:1;fill-rule:nonzero;stroke:none" />
      </g>
      <g
         transform="scale(1,-1)"
         id="g3367">
        <path
           d="m 271.755,-367.949 c 0,1.175 -0.951,2.127 -2.125,2.127 0,0 -19.134,0 -19.134,0 -1.175,0 -2.126,-0.952 -2.126,-2.127 0,0 0,-25.51 0,-25.51 0,-1.174 0.951,-2.127 2.126,-2.127 0,0 19.134,0 19.134,0 1.174,0 2.125,0.953 2.125,2.127 0,0 0,25.51 0,25.51 z"
           id="path3369"
           style="fill:none;stroke:#000000;stroke-width:0.75010997;stroke-linecap:butt;stroke-linejoin:miter;stroke-miterlimit:4;stroke-opacity:1;stroke-dasharray:none" />
      </g>
      <g
         transform="scale(1,-1)"
         id="g3371">
        <path
           d="m 257.056,-392.929 c -0.636,-0.429 -1.39,-0.673 -2.167,-0.673 -1.781,0 -2.288,1.426 -2.288,2.996 0,1.796 0.871,3.248 2.806,3.248 1.013,0 1.934,-0.377 2.804,-0.844 0,0 -0.648,1.897 -0.648,1.897 -0.844,0.232 -1.714,0.311 -2.584,0.311 -1.325,0 -2.442,-0.223 -3.481,-1.116 -1.001,-0.846 -1.534,-2.067 -1.534,-3.391 0,-1.195 0.508,-2.454 1.418,-3.262 0.986,-0.841 2.349,-1.154 3.621,-1.154 0,0 1.964,0.169 1.964,0.169 0,0 0.089,1.819 0.089,1.819 z"
           id="path3373"
           style="fill:#ffffff;fill-opacity:1;fill-rule:nonzero;stroke:none" />
      </g>
      <g
         transform="scale(1,-1)"
         id="g3375">
        <path
           d="m 261.452,-385.406 c 0.43,0.174 0.908,0.197 1.364,0.197 0.727,0 1.404,-0.118 1.896,-0.715 0,0 0.065,0 0.065,0 0,0 -0.52,1.959 -0.52,1.959 0,0 -5.752,0 -5.752,0 0,0 0,-0.039 0,-0.039 0.635,-0.4 0.545,-1.129 0.545,-1.801 0,0 0,-4.862 0,-4.862 0,-0.673 0.09,-1.413 -0.545,-1.8 0,0 0,-0.041 0,-0.041 0,0 4.546,0 4.546,0 0.193,0 0.402,0 0.545,-0.067 0,0 0.038,0 0.038,0 0,0 0,1.885 0,1.885 0,0 -0.038,0 -0.038,0 -0.352,-0.612 -1.092,-0.545 -1.728,-0.545 0,0 -0.416,0 -0.416,0 0,0 0,2.103 0,2.103 0,0 1.207,0 1.207,0 0.184,0 0.365,-0.011 0.482,-0.064 0,0 0.065,0 0.065,0 0,0 0,1.817 0,1.817 0,0 -0.065,0 -0.065,0 -0.183,-0.52 -0.781,-0.467 -1.259,-0.467 0,0 -0.43,0 -0.43,0 0,0 0,2.44 0,2.44 z"
           id="path3377"
           style="fill:#ffffff;fill-opacity:1;fill-rule:nonzero;stroke:none" />
      </g>
      <g
         transform="scale(1,-1)"
         id="g3379">
        <path
           d="m 255.938,-379.573 c 0,0 1.505,2.829 1.505,2.829 0.452,0.804 0.87,0.923 1.742,0.874 0,0 1.792,-0.118 1.792,-0.118 -0.521,-0.428 -0.899,-0.975 -1.247,-1.559 0,0 -1.547,-2.584 -1.547,-2.584 0.858,-0.368 1.547,-1.078 1.547,-2.053 0,-0.871 -0.392,-1.557 -1.158,-1.976 -0.583,-0.31 -1.102,-0.297 -1.739,-0.297 0,0 -3.846,0 -3.846,0 0,0 0,0.04 0,0.04 0.638,0.403 0.548,1.14 0.548,1.815 0,0 0,4.833 0,4.833 0,0.677 0.09,1.417 -0.548,1.816 0,0 0,0.04 0,0.04 0,0 3.496,0 3.496,0 0,0 0,-0.04 0,-0.04 -0.638,-0.399 -0.545,-1.139 -0.545,-1.816 0,0 0,-1.804 0,-1.804 z m 0.127,-3.623 c 0.258,0 0.535,0.025 0.754,0.18 0.35,0.248 0.521,0.687 0.521,1.107 0,0.818 -0.602,1.503 -1.402,1.645 0,0 0,-2.932 0,-2.932 0,0 0.127,0 0.127,0"
           id="path3381"
           style="fill:#ffffff;fill-opacity:1;fill-rule:nonzero;stroke:none" />
      </g>
      <g
         transform="scale(1,-1)"
         id="g3383">
        <path
           d="m 260.52,-377.764 c 0,2.742 2.065,4.471 4.727,4.471 2.637,0 4.883,-1.652 4.883,-4.482 0,-2.856 -1.998,-4.442 -4.727,-4.442 -2.636,0 -4.883,1.689 -4.883,4.453 z m 2.522,-0.35 c 0,-1.337 0.672,-2.804 2.205,-2.804 1.779,0 2.363,2.115 2.363,3.599 0,0.634 -0.089,1.296 -0.48,1.817 -0.416,0.557 -1.039,0.909 -1.727,0.909 -0.739,0 -1.39,-0.495 -1.754,-1.12 -0.364,-0.649 -0.607,-1.649 -0.607,-2.401"
           id="path3385"
           style="fill:#ffffff;fill-opacity:1;fill-rule:nonzero;stroke:none" />
      </g>
      <g
         transform="scale(1,-1)"
         id="g3387">
        <path
           d="m 253.796,-369.206 c 0,0 -1.332,0 -1.332,0 0,0 0,0.452 0,0.452 0,0 1.332,0 1.332,0 0,0 0,-0.452 0,-0.452 z m -1.332,-0.389 c 0,0 1.332,0 1.332,0 0,0 0,-0.431 0,-0.431 0,0 -1.332,0 -1.332,0 0,0 0,0.431 0,0.431 m 0,-0.821 c 0,0 1.332,0 1.332,0 0,0 0,-0.43 0,-0.43 0,0 -1.332,0 -1.332,0 0,0 0,0.43 0,0.43 m 0.779,2.051 c 0,0 -0.369,0 -0.369,0 0,0 0,0.205 0,0.205 0,0.849 -0.486,1.348 -1.457,1.497 0,0 -0.123,-0.43 -0.123,-0.43 0.779,-0.095 1.17,-0.464 1.17,-1.108 0,0 0,-0.164 0,-0.164 0,0 -0.205,0 -0.205,0 0,0 -0.205,0 -0.205,0 0,0 0,-2.871 0,-2.871 0,0 2.152,0 2.152,0 0,0 0,2.871 0,2.871 0,0 -0.553,0 -0.553,0 0,0 0,1.026 0,1.026 0,0.11 0.047,0.164 0.143,0.164 0,0 0.205,0 0.205,0 0.068,0 0.109,-0.068 0.123,-0.205 0,0 0.041,-0.349 0.041,-0.349 0,0 0.41,0.123 0.41,0.123 0,0 -0.06,0.472 -0.06,0.472 -0.028,0.233 -0.159,0.348 -0.391,0.348 0,0 -0.512,0 -0.512,0 -0.246,0 -0.369,-0.115 -0.369,-0.348 0,0 0,-1.231 0,-1.231 m -1.293,0.451 c 0,0 -0.287,0.431 -0.287,0.431 -0.287,-0.313 -0.539,-0.547 -0.758,-0.697 -0.137,0.601 -0.425,1.074 -0.861,1.415 0,0 -0.309,-0.369 -0.309,-0.369 0.602,-0.505 0.889,-1.161 0.862,-1.969 0,0 -0.78,0 -0.78,0 0,0 0,-0.39 0,-0.39 0,0 0.801,0 0.801,0 0,0 0,-0.738 0,-0.738 0,0 -0.656,0 -0.656,0 0,0 0,-0.39 0,-0.39 0,0 0.656,0 0.656,0 0,0 0,-0.82 0,-0.82 0,0 0.389,0 0.389,0 0.109,0.015 0.117,0.056 0.021,0.123 0,0 0,0.697 0,0.697 0,0 0.717,0 0.717,0 0,0 0,0.39 0,0.39 0,0 -0.717,0 -0.717,0 0,0 0,0.738 0,0.738 0,0 0.821,0 0.821,0 0,0 0,0.39 0,0.39 0,0 -0.842,0 -0.842,0 0,0.22 -0.006,0.39 -0.02,0.513 0.273,0.123 0.594,0.348 0.963,0.676"
           id="path3389"
           style="fill:#000000;fill-opacity:1;fill-rule:nonzero;stroke:none" />
      </g>
      <g
         transform="scale(1,-1)"
         id="g3391">
        <path
           d="m 257.628,-370.846 c 0,0 1.887,0 1.887,0 0,0 0,1.087 0,1.087 0,0 -0.41,0 -0.41,0 0,0 0,-0.698 0,-0.698 0,0 -3.405,0 -3.405,0 0,0 0,0.739 0,0.739 0,0 -0.41,0 -0.41,0 0,0 0,-1.128 0,-1.128 0,0 1.867,0 1.867,0 0,0 0,-0.595 0,-0.595 0,0 0.451,0 0.451,0 0.137,0.028 0.143,0.082 0.02,0.164 0,0 0,0.431 0,0.431 z m -2.502,3.753 c 0.671,-0.41 0.999,-1.067 0.984,-1.969 0,0 0.473,0.082 0.473,0.082 0.041,0.041 0.026,0.082 -0.041,0.123 0,0 -0.104,0.738 -0.104,0.738 0.206,0.246 0.473,0.458 0.801,0.636 0,0 0,-1.989 0,-1.989 0,0 -1.394,0 -1.394,0 0,0 0,-0.39 0,-0.39 0,0 3.095,0 3.095,0 0,0 0,0.39 0,0.39 0,0 -1.291,0 -1.291,0 0,0 0,0.759 0,0.759 0,0 1.436,0 1.436,0 0,0 0,0.389 0,0.389 0,0 -1.436,0 -1.436,0 0,0 0,0.985 0,0.985 0.206,0.055 0.411,0.082 0.616,0.082 0,0 1.353,0 1.353,0 0,0 -0.082,0.389 -0.082,0.389 0,0 -1.271,0 -1.271,0 -0.794,0 -1.443,-0.287 -1.95,-0.861 -0.205,0.451 -0.492,0.794 -0.861,1.025 0,0 -0.328,-0.389 -0.328,-0.389"
           id="path3393"
           style="fill:#000000;fill-opacity:1;fill-rule:nonzero;stroke:none" />
      </g>
      <g
         transform="scale(1,-1)"
         id="g3395">
        <path
           d="m 262.899,-368.59 c 0,0 0,0.471 0,0.471 0,0 0.717,0 0.717,0 0,0 0,-0.471 0,-0.471 0,0 -0.717,0 -0.717,0 z m 0.881,-2.072 c 0,0 -1.086,0 -1.086,0 0,0 0.246,0.554 0.246,0.554 0,0 0.512,0 0.512,0 0,0 0.328,-0.554 0.328,-0.554 m 0.555,2.666 c 0,0 0,-1.784 0,-1.784 0,0 -0.902,0 -0.902,0 0,0 0,0.308 0,0.308 0,0 0.675,0 0.675,0 0,0 0,0.328 0,0.328 0,0 -0.675,0 -0.675,0 0,0 0,0.308 0,0.308 0,0 0.533,0 0.533,0 0,0 0,0.963 0,0.963 0,0 -1.067,0 -1.067,0 0,0 0,0.206 0,0.206 0,0 -0.349,0 -0.349,0 0,0 0,-1.169 0,-1.169 0,0 0.533,0 0.533,0 0,0 0,-0.308 0,-0.308 0,0 -0.697,0 -0.697,0 0,0 0,-0.328 0,-0.328 0,0 0.697,0 0.697,0 0,0 0,-0.308 0,-0.308 0,0 -0.922,0 -0.922,0 0,0 0,2.256 0,2.256 0,0 -0.41,0 -0.41,0 0,0 0,-2.584 0,-2.584 0,0 0.758,0 0.758,0 0,0 -0.287,-0.554 -0.287,-0.554 0,0 -0.616,0 -0.616,0 0,0 0,-0.389 0,-0.389 0,0 1.375,0 1.375,0 0,0 0,-0.431 0,-0.431 0,0 0.452,0 0.452,0 0.136,0.028 0.142,0.082 0.019,0.164 0,0 0,0.267 0,0.267 0,0 1.457,0 1.457,0 0,0 0,0.389 0,0.389 0,0 -0.637,0 -0.637,0 0,0 -0.41,0.554 -0.41,0.554 0,0 0.883,0 0.883,0 0,0 0,2.256 0,2.256 0,0.22 -0.11,0.328 -0.328,0.328 0,0 -0.369,0 -0.369,0 0,0 -0.022,-0.39 -0.022,-0.39 0,0 0.227,0 0.227,0 0.055,0 0.082,-0.026 0.082,-0.082 m -2.893,-2.666 c 0,0 -0.41,0.39 -0.41,0.39 -0.177,-0.313 -0.375,-0.574 -0.594,-0.779 0,0 0.37,-0.328 0.37,-0.328 0.218,0.191 0.429,0.43 0.634,0.717 m 3.528,3.384 c 0,0 -0.061,0.39 -0.061,0.39 0,0 -2.625,0 -2.625,0 -0.466,0 -0.835,-0.185 -1.107,-0.554 -0.164,0.261 -0.369,0.472 -0.615,0.636 0,0 -0.268,-0.451 -0.268,-0.451 0.246,-0.123 0.466,-0.259 0.656,-0.41 0,0 0,-1.272 0,-1.272 0,0 -0.635,0 -0.635,0 0,0 0,-0.451 0,-0.451 0,0 1.108,0 1.108,0 0,0 0,1.702 0,1.702 0.205,0.273 0.485,0.41 0.84,0.41 0,0 2.707,0 2.707,0"
           id="path3397"
           style="fill:#000000;fill-opacity:1;fill-rule:nonzero;stroke:none" />
      </g>
      <g
         transform="scale(1,-1)"
         id="g3399">
        <path
           d="m 266.774,-367.462 c 0,0 2.237,0 2.237,0 0,0 0,-0.964 0,-0.964 0,0 -2.237,0 -2.237,0 0,0 0,0.964 0,0.964 z m 0,0.676 c 0,0 -0.41,0 -0.41,0 0,0 0,-2.03 0,-2.03 0,0 3.057,0 3.057,0 0,0 0,1.969 0,1.969 0,0 -0.41,0 -0.41,0 0,0 0,-0.226 0,-0.226 0,0 -2.237,0 -2.237,0 0,0 0,0.287 0,0.287 m 3.405,-2.973 c 0,0 -0.205,0.471 -0.205,0.471 -0.93,-0.341 -1.661,-0.881 -2.194,-1.62 -0.246,0.507 -0.589,0.909 -1.025,1.21 0,0 2.275,0 2.275,0 0,0 0,0.39 0,0.39 0,0 -2.297,0 -2.297,0 0,0 0,-0.369 0,-0.369 -0.246,0.205 -0.533,0.384 -0.861,0.533 0,0 -0.287,-0.39 -0.287,-0.39 0.998,-0.465 1.654,-1.087 1.969,-1.866 0,0 0.533,0.103 0.533,0.103 0.096,0.014 0.089,0.055 -0.02,0.123 0.534,0.671 1.237,1.142 2.112,1.415"
           id="path3401"
           style="fill:#000000;fill-opacity:1;fill-rule:nonzero;stroke:none" />
      </g>
    </g>
  </g>
</svg>
