<?xml version="1.0" encoding="utf-8"?>
<!-- Generator: Adobe Illustrator 22.1.0, SVG Export Plug-In . SVG Version: 6.00 Build 0)  -->
<svg version="1.1" xmlns="http://www.w3.org/2000/svg" xmlns:xlink="http://www.w3.org/1999/xlink" x="0px" y="0px" width="725.9px"
	 height="723.9px" viewBox="0 0 725.9 723.9" style="enable-background:new 0 0 725.9 723.9;" xml:space="preserve">
<style type="text/css">
	.st0{fill:#232323;}
	.st1{fill:#FFFFFF;stroke:#020202;}
	.st2{fill:#FFFFFF;stroke:#232323;}
	.st3{fill:#FFFFFF;stroke:#000000;}
</style>
<rect class="st0" width="725.9" height="723.9"/>
<path class="st1" d="M260.3,285.7c0,6.7,1.1,31,14.2,31h45.2c14.4,0,15.8-24.2,15.8-31V131.2c0-6.7-6-12.2-13.5-12.2h-48.3
	c-7.4,0-13.5,5.5-13.5,12.2V285.7z"/>
<path class="st1" d="M354.3,277.2c0,5.8,0.9,26.5,12.1,26.5H405c12.3,0,13.5-20.7,13.5-26.5V145.2c0-5.8-5.1-10.4-11.5-10.4h-41.2
	c-6.4,0-11.5,4.7-11.5,10.4L354.3,277.2L354.3,277.2z"/>
<path class="st1" d="M164,289.8c0,7.1,5.2,32.8,18.8,32.8h39.7c15.1,0,19.9-25.6,19.9-32.8V126.4c0-7.1-6.3-12.9-14-12.9H178
	c-7.8,0-14,5.8-14,12.9L164,289.8L164,289.8z"/>
<path class="st1" d="M72.3,286.4c0,6.6,1.1,30.2,13.8,30.2h44.1c14.1,0,15.4-23.7,15.4-30.2V135.7c0-6.6-5.9-11.9-13.1-11.9H85.4
	c-7.3,0-13.1,5.3-13.1,11.9L72.3,286.4L72.3,286.4z"/>
<path class="st2" d="M162,574.5v77h261.5v-272H144.7l-11.1-47.4l58.4-30.3c4.8-2.5,21.4-12.6,14-26.9l-25.5-49.3
	c-8.2-15.7-26.2-8.3-31-5.8L39.6,276.8l-2.4,2.2L16,385.5L162,574.5z"/>
<polygon class="st3" points="544.5,378.5 441,378.5 441,182.5 714.5,182.5 "/>
</svg>
